<svg xmlns="http://www.w3.org/2000/svg" data-name="Слой 1" viewBox="0 0 100 125" x="0px" y="0px">
  <title>asteroid1</title>
  <path
    d="M97.79266,41.31294c0.41221,1.90907-.293,3.59442-0.96534,5.25894-0.84526,2.09262-.95008,4.32155-1.37011,6.4932a2.067,2.067,0,0,1-1.56457,1.77087,4.31607,4.31607,0,0,0-2.90753,2.34649c-0.84035,1.82812-.49333,3.44487,1.30479,4.34824a1.58656,1.58656,0,0,1,1.15278,1.78917c-0.16623,1.16767-.29758,2.34054-0.429,3.51286-0.22211,1.98151-1.72723,3.096-3.1696,3.93958-2.19761,1.28535-4.08434,3.01457-6.32545,4.195-2.274,1.19776-4.57955,2.25525-7.31669,1.87277-2.51282-.35111-3.79146.72293-3.54772,3.19347,0.337,3.41623-1.59817,5.32247-4.01611,7.06049a1.303,1.303,0,0,1-1.80486-.24174c-2.24722-1.89915-2.7117-1.80184-4.22338.75464a1.29785,1.29785,0,0,1-1.22234.75913c-1.767-.072-3.48091-0.01057-4.90519-1.50544-1.50483-1.57935-3.87562-1.01467-5.21026.9554-0.59674.88081-.40024,2.18493-1.72474,2.70331a12.86453,12.86453,0,0,1-5.8319.43031,10.54722,10.54722,0,0,0-4.078-.01179c-1.01029.328-1.778-.21587-2.56987-0.5472-2.95073-1.23454-5.79681-2.45268-6.539-6.24254-0.2681-1.369-1.69775-2.62726-2.83876-3.67261a18.69368,18.69368,0,0,0-3.43787-2.058,1.68278,1.68278,0,0,0-1.92369.00479c-0.84784.61638-1.332,0.15594-1.81089-.48269-1.83962-2.45363-4.62832-2.98515-6.917-1.03649-1.29153,1.09964-2.28281.84655-3.45168,0.1049a2.73192,2.73192,0,0,0-1.19905-.57378,5.44342,5.44342,0,0,1-3.56872-1.82412C1.10484,70.145.89358,65.1665,5.10823,60.70359,6.02376,59.73411,6.68507,58.966,6.273,57.34816c-0.66185-2.59846-.35725-5.34435-0.36872-8.03256A2.262,2.262,0,0,1,7.33853,47.3879c2.13221-1.34706,3.63005-2.78009,3.573-5.75147a7.62157,7.62157,0,0,1,2.98292-6.16252,2.23732,2.23732,0,0,0,1.0682-1.657c-0.06507-1.51048.72115-2.1011,2.01645-2.3704,1.11095-.231,1.931-1.28509,3.31634-0.87381,1.13885,0.33812,2.41557.34464,3.01414-1.17125a1.86252,1.86252,0,0,1,.92958-0.95641,2.6479,2.6479,0,0,0,1.87051-2.88275c-0.04827-2.805,1.64711-5.41919,1.63842-8.07983-0.01276-3.93,3.13156-4.007,5.2572-5.28376,1.11357-.66888,2.42871-0.94272,3.49226-1.88017,1.96107-1.72862,8.23155-1.8592,10.35378-.35156a3.96678,3.96678,0,0,1,1.59023,3.18537c0.04424,0.91223.26627,1.37645,1.25943,1.31983a8.64988,8.64988,0,0,1,4.92016.90218c0.75707,0.423,1.64253-.11423,2.30888-0.69066,1.44753-1.25225,3.16694-1.20487,4.87921-.94461a1.94687,1.94687,0,0,1,1.70407,1.66739,3.45611,3.45611,0,0,0,2.59773,2.77581c2.16926,0.75369,3.65928,2.003,3.901,4.51811,0.11168,1.162.80281,1.80391,2.3542,1.727a48.93354,48.93354,0,0,0,8.34153-1.24357,2.36914,2.36914,0,0,1,2.82882,1.53027c0.31575,0.67251.53308,0.96633,1.18978,0.41373a0.56989,0.56989,0,0,1,.48323-0.10047c2.71041,1.1665,5.94517.73222,8.38976,2.64575a9.029,9.029,0,0,1,3.52864,7.48269C97.10444,37.27734,98.36553,39.20073,97.79266,41.31294Zm-59.416,47.93557c2.35208-.21485,4.69327.11649,6.99795-0.01334,1.97949-.1115,4.33236-0.20613,5.004-2.909a2.17026,2.17026,0,0,1,.82347-0.84053,5.08226,5.08226,0,0,1,6.8762.38891c1.09087,0.98248,2.61594,1.11958,3.25526.27009,2.06123-2.73886,2.70276-2.89684,5.68534-1.18766a1.46448,1.46448,0,0,0,1.83654-.11428c1.89168-1.35555,2.21562-3.22022,2.09583-5.389a4.15688,4.15688,0,0,1,4.65023-4.3429A12.24466,12.24466,0,0,0,82.69833,73.543c1.76528-.9338,3.04549-2.52767,4.843-3.37441,2.38671-1.12425,4.098-2.59393,3.93653-5.60066a2.0929,2.0929,0,0,0-.67587-1.79258c-3.18624-2.89051-2.73061-5.57989.42593-8.21158,1.69147-1.41026,2.90283-2.63541,3.19123-4.78273,0.41529-3.092,2.25092-5.89714,1.75846-9.19-0.39749-2.65785-.85391-5.30642-1.13652-7.98649-0.18931-1.79493-3.24125-4.6172-4.76674-4.66286a7.94652,7.94652,0,0,1-3.70473-.8631C85.2391,26.34887,84.5686,27.05019,83.953,28.188c-0.23559.43541,0.24756,1.20507-.27983,1.16352a1.56208,1.56208,0,0,1-1.09091-1.45362c-0.07987-.44255.02-0.92282-0.08877-1.35385-0.299-1.18455-.74464-2.20014-2.32289-1.56992a7.13979,7.13979,0,0,1-1.32446.2187c-2.69157.50294-5.59229,1.60019-8.07447,0.46682-2.109-.963-3.431-0.20106-5.05646.48552a9.42151,9.42151,0,0,0-1.70744.71014c-1.33984.92137-3.57928,0.71807-3.848,3.28216,0.26644-2.48623-1.24051-.54459-1.87854-1.15213,2.06913-.318,1.71239-2.35076,2.54808-3.67308,0.5034,0.85192-.04661,1.486.0338,2.2927a65.18891,65.18891,0,0,0,7.18043-3.24205,1.17291,1.17291,0,0,0,.52111-1.31921c-0.043-1.73808-1.23186-2.9868-3.41692-3.47039a3.50133,3.50133,0,0,1-3.0778-3.0991,1.27164,1.27164,0,0,0-1.24109-1.14461,3.34836,3.34836,0,0,0-3.23085.97674,1.59553,1.59553,0,0,1-1.46657.69087c-1.263-.23075-2.56413-0.09232-3.80726-0.63287a5.486,5.486,0,0,0-3.504-.0646c-2.39744.60148-2.35013,0.671-1.86428-1.88361A2.78761,2.78761,0,0,0,45.69856,11.349c-1.82024-1.0023-6.40008-1.423-8.4999.54427a7.10865,7.10865,0,0,1-3.08744,1.57221,13.06071,13.06071,0,0,0-3.63841,1.75469,1.711,1.711,0,0,0-1.02268,1.27856c0.0928,1.65836-.6478,3.214-0.59325,4.63968,0.89037,0.4432,1.75517-.43632,2.67107.34526-3.79291.55108-3.83387,0.59691-3.834,4.17744a5.61081,5.61081,0,0,0,.03642,1.69244c0.28806,0.867-.11688,1.06865-0.78576,1.44277-1.55913.87193-3.61828,1.56985-2.39478,4.1134a0.62279,0.62279,0,0,1-.363.83849,0.77533,0.77533,0,0,1-.94625-0.08145c-0.30016-.25791-0.551-0.57328-0.85166-0.83053-1.8844-1.61236-5.35354-.38875-6.01265,1.96112-0.18565.662,0.21451,1.864-.70834,1.99608-1.511.2162-1.94835,1.39245-2.519,2.38322a4.17985,4.17985,0,0,0-.66115,3.446c0.83191-.36824,1.31086-1.26412,2.42967-1.11943-1.46533,1.10839-1.3704,1.1591-2.67877,3.60854-0.53978,1.01049-.8354,2.2533-2.37457,2.70467A3.1645,3.1645,0,0,0,7.44435,50.8531c-0.10948,1.377.3602,2.65054,0.14087,3.97763-0.35538,2.14986-.03725,3.05059,1.54079,4.642a0.38313,0.38313,0,0,1-.104.67943c-0.787.26089-1.043,1.43964-2.23666,1.10148-0.59691-.16912-0.82671.73059-1.15939,1.20211a0.54189,0.54189,0,0,0,.09168.27042c0.43808,0.37407.91208-.59589,1.3936,0.13032a19.30209,19.30209,0,0,0-2.28135,1.31A2.72886,2.72886,0,0,0,3.62336,66.779c0.1521,0.7246,1.044-.06839,1.59538.12333,0.24727,0.086.59707-.02611,0.62784,0.38367a0.50093,0.50093,0,0,1-.52909.52795c-0.33326.0571-.6767,0.056-1.00916,0.11639-0.3972.07214-.992-0.23657-1.09993,0.44746a1.55622,1.55622,0,0,0,.33122,1.43883c0.41138,0.40221.73711,0.00809,1.01016-.212a0.8344,0.8344,0,0,1,1.19968.137c0.37068,0.36508.04474,0.67744-.27741,0.97232a0.95767,0.95767,0,0,0-.0274,1.2396,7.74384,7.74384,0,0,0,2.2295,2.5398c-0.16673-1.71345.79794-1.11181,1.55306-1.01615,0.08569,0.69254-.45633.80373-0.76726,1.10571,0.81769,0.62854,1.877.60783,2.77648,1.12579,1.118,0.64377,1.86112-.68316,2.75893-1.141,1.67962-.85646,6.40141-0.07,7.3369,1.50791a1.53553,1.53553,0,0,0,1.51368.73546c1.81392,0.09416,3.60481.7551,5.44535,0.17924l-1.62811.66916a1.02367,1.02367,0,0,0,.13729.38764c0.21912,0.17055.46822,0.3019,0.69961,0.45749a11.85555,11.85555,0,0,1,4.88615,6.05761c1.07943,3.17112,3.02046,4.226,6.33094,3.45046a2.24048,2.24048,0,0,1,1.65933-.13333C39.877,88.75259,38.88327,88.47843,38.37663,89.24851Z" />
  <path
    d="M74.67389,43.37142C75.9,43.27221,76.481,44.669,77.746,44.22315c0.46028-.16226.19638,0.28225,0.18977,0.52606-0.02715,1.00223.20457,1.504,1.336,0.8127,0.50755-.31012,1.0134-0.9289,1.82116-0.66726-0.15966.697-.79333,0.72115-1.23136,0.99857a1.737,1.737,0,0,0-1.10326,1.68961c0.09426,1.53256-1.89446,1.70186-2.02764,3.14154L79.624,49.49878c-1.657,1.61318-3.92281,1.90662-5.81261,2.98988a0.86223,0.86223,0,0,1-.7915-0.16978c-1.2771-1.33762-3.09809-1.15956-4.65206-1.70721-1.7311-.61008-2.451-1.69986-2.05192-3.49591a6.62614,6.62614,0,0,0-.06794-3.65832,1.40365,1.40365,0,0,1,1.33631-2.104c1.34857-.1523,2.54114-0.90729,3.82468-1.21687,1.27585-.30771,2.65681-0.27272,4.43627-0.70192-1.27294,1.04159-1.4536,2.18991-2.37711,3.24156,1.81717-.2326,2.95556-1.6801,4.95126-1.49737C77.11557,42.10108,75.7,42.12381,74.67389,43.37142Zm-2.07845-1.962a8.70814,8.70814,0,0,0-3.459.48384c-1.09856.30376-1.89513,0.825-1.39,2.327a6.396,6.396,0,0,1,.03771,3.01673c-0.23966,1.35844.3965,1.8861,1.518,2.31818,1.10513,0.42578,2.33487.15566,3.39833,0.78336,1.51609,0.89488,2.95215.25113,4.45323-2.16147,0.72119-1.15913.70871-2.25753-1.1855-2.13546-0.08569-2.01474-2.21321-1.59694-3.13539-2.62509C72.30505,42.82808,71.52486,42.34549,72.59544,41.40937Z" />
  <path
    d="M55.83168,71.84586c-0.67553.26-1.34233,0.54645-2.02876,0.77349-0.89582.29626-1.49214,0.61288-.96089,1.77675a0.9037,0.9037,0,0,1-.93694,1.36515c-0.9-.00781-1.73322.37618-2.659,0.36708-3.189-.03137-3.43488-0.4839-3.49733-3.83583a1.53707,1.53707,0,0,1,.84484-1.5489c2.49316-1.05719,4.80927-2.56943,7.8279-3.18516-0.82584,1.14621-2.28572.86254-2.81115,2.08877,1.83251-.27609,3.40794-1.202,5.20015-1.23522-1.39576.50631-2.3947,1.72679-3.93977,1.98454a1.13687,1.13687,0,0,0-.68293,1.61641c0.238,0.68117.8231,0.21628,1.27843,0.02345,0.61441-.26021,1.2408-0.49763,1.87613-0.70088,0.44531-.14244.62909,0.0502,0.47425,0.51137Zm-5.64372.99967a1.32922,1.32922,0,0,1-.34082,1.15273c-0.23322.1808-.7125,0.28865-0.54182,0.69182,0.20777,0.49066.63154,0.18118,1.00912,0.173,1.65979-.036,1.46628-0.933.86114-1.88021-0.34336-.53742.0832-1.81418-0.98713-1.57307C48.93465,71.69227,50.78978,72.39544,50.188,72.84553Z" />
  <path
    d="M32.80613,51.70855c0.41928,1.37414-.08021,2.22678-1.89912,2.58813A14.91792,14.91792,0,0,0,27.11277,56.069c-0.71794.38018-1.0771,0.25511-1.11016-.55781a4.028,4.028,0,0,0-1.79534-3.09754,1.53546,1.53546,0,0,1-.1133-2.49543,19.73935,19.73935,0,0,1,4.1344-3.1799c0.7426-.45467,1.66686-0.72917,1.67555.73207,0.002,0.32523.17925,0.29036,0.39521,0.35293C32.79678,48.54705,32.79532,48.55211,32.80613,51.70855Zm-3.77716.758a0.378,0.378,0,0,1-.40253.4312c-0.63291.07843-1.67114,0.15486-1.45443,0.86194,0.34606,1.12884,1.06434.02229,1.59859-.11377,0.63695-.1622,1.21806-0.53668,1.852-0.72029a0.599,0.599,0,0,0,.5698-0.66721,8.86386,8.86386,0,0,0-.24947-2.66473c-0.33991-.82987-1.329-0.18807-2.00839-0.35349a1.35733,1.35733,0,0,1-.64277-0.15348c-0.5636-.77211-0.91208-0.488-1.38574.12266a5.76249,5.76249,0,0,1-1.30076,1.01681c-0.32689.2302-.731,0.43625-0.55558,0.91094a0.98983,0.98983,0,0,0,1.16791.4342c0.68056,0.01124,1.34529-.48668,2.09766-0.15332-0.29929.44552-.7273,0.1586-0.9855,0.34409-0.31226.22431-1.13535-.11472-0.92363,0.62646,0.17758,0.62164.73936,0.43348,1.27394,0.2842C28.10114,52.55522,28.51273,51.95938,29.029,52.46659Z" />
  <path
    d="M54.06907,20.04535c0.26461,2.49041-1.56216,3.78672-2.99,5.26678-0.59791.61978-1.21735,0.21727-1.2045-.57324a0.912,0.912,0,0,0-1.18932-1.10345c-0.94156.07187-2.3885,0.00389-2.46389-.77852-0.1126-1.16822,1.183-2.20871,2.18265-2.48875,1.41048-.39514,2.65956-1.11876,4.01536-1.59385C54.03851,18.207,53.93077,19.19586,54.06907,20.04535Z" />
  <path
    d="M13.33138,64.63913c-0.23442,1.1681-.834,2.1348.86522,1.66565a0.97387,0.97387,0,0,1,.88754,1.054,2.29133,2.29133,0,0,0,.09122,1.00071c1.11606,1.79121-.11193,2.36775-1.4299,3.02384a1.34178,1.34178,0,0,1-1.90024-.39348A7.91321,7.91321,0,0,0,8.897,68.57094c-0.93311-.40308-0.84834-1.09731-0.00008-1.64992a19.7546,19.7546,0,0,0,3.54918-2.26863C12.69464,64.40361,13.33446,64.21073,13.33138,64.63913Zm-3.02674,2.85265a13.93528,13.93528,0,0,1,2.51877,2.20338c0.34943,0.50923.76272,0.26406,0.91183-.34228,0.305-1.24065-.567-1.927-1.32907-2.53055C11.58295,66.17038,11.12953,67.1777,10.30464,67.49178Z" />
  <path
    d="M87.74419,47.60871c-0.05821-.40508.28544-0.996-0.45778-1.093-1.0655-.139-2.24863-0.4734-2.131-1.67446A3.32886,3.32886,0,0,1,87.62012,42.135c1.46878-.455,3.04237-0.56884,4.49315-1.42157-0.90384.81761-.29953,1.74691-0.34731,2.57431-0.18449,3.197-.14,3.19887-3.09759,3.9908-0.32348.08661-.64339,0.18648-0.965,0.2802Zm1.22745-2.1653c0.96334,0.16477,1.76066.04346,1.66977-.82327a1.794,1.794,0,0,0-1.75654-1.56346c-1.04812-.06037-2.21449.48785-2.11184,1.44123C86.88982,45.5827,88.31943,45.24405,88.97164,45.44341Z" />
  <path
    d="M48.583,55.4699c-0.26295.69882-1.70016,0.42773-1.36283,1.23434,0.44165,1.05615,1.37477-.727,2.20123.13191-0.432.61695-1.47073,0.76069-1.63563,1.72761,1.101,0.46794,1.87479-.73113,2.93984-0.4583-0.10848.74073-.85607,0.76558-1.24558,1.1543-0.28669.28607-1.154,0.152-.71736,0.98935a1.21547,1.21547,0,0,0,1.35448.92757c2.09354-.18948,3.9811-1.11388,6.01144-1.4979,0.27263-.05157.52739-0.2069,0.80019-0.24621a0.49383,0.49383,0,0,1,.678.30518,0.52407,0.52407,0,0,1-.53811.68254,45.99008,45.99008,0,0,0-7.35881,1.66215,1.20428,1.20428,0,0,1-1.38258-.68733,41.70861,41.70861,0,0,1-3.09252-5.75232,0.86612,0.86612,0,0,1,.27434-1.19424c0.45088-.329.77832,0.01021,0.88879,0.41282C46.79662,56.31534,47.883,54.95729,48.583,55.4699Z" />
  <path
    d="M16.17967,53.25208c-0.62705-.83918-1.31277-1.61948-1.92918-2.44514a2.75864,2.75864,0,0,1,.62427-3.90581c0.80235-.70444,1.70519-1.29337,2.55062-1.95,1.51543-1.177,1.80918-2.4468.89673-3.81854,1.5447-.68371.97079,1.11625,1.69135,1.49685,0.40485,0.21384-.37039.51-0.506,0.78623-0.80879,1.6476-2.35669,2.48271-3.70186,3.54687a4.439,4.439,0,0,0-1.28142,1.77023,1.83216,1.83216,0,0,0,.63358,1.97929c0.43359,0.543,1.01864.164,1.51435-.1222,0.4155-.23992.84243-0.46,1.56133-0.84994C16.59329,51.67478,16.16832,52.46994,16.17967,53.25208Z" />
  <path
    d="M46.50739,43.77524a1.55952,1.55952,0,0,1-.74975-1.75049c-0.10166-2.93514-.83811-3.82731-3.74971-4.46138-1.75085-.38129-1.86324-0.63917-0.908-2.22908,0.4814,0.38516-.53221,1.04667.26781,1.34838a1.26978,1.26978,0,0,0,1.54736-.11815c0.4881-.46413.61965-0.4431,0.88339,0.36367,0.46539,1.42381,1.58266.04819,2.51748,0.21613,0.05667,0.666-1.15964,1.28405-.28956,1.83288,0.8038,0.50706,1.35065-.77425,2.39657-0.567-0.86064.92727-2.55864,1.28921-1.96648,2.99042,0.24008,0.68977.80829,0.06767,1.332,0.40718C46.85279,42.10677,46.17655,42.58274,46.50739,43.77524Z" />
  <path d="M55.46121,79.8784C60.318,77.73061,64.97876,75.01762,70.433,74.599Z" />
  <path
    d="M53.91535,41.35361c0.4224-1.52761,1.00762-2.101,2.23171-1.01263,1.20645,1.07267,2.76542,1.08349,4.2443,1.329,1.53817,0.25533,1.708.67417,0.83445,2.5094-0.05443-1.4115-.54468-1.88035-1.84365-1.51955a3.70437,3.70437,0,0,1-3.01522-.789C55.66358,41.39966,54.9979,40.66117,53.91535,41.35361Z" />
  <path
    d="M70.91935,70.94631c4.2324-1.67077,8.42984-3.55375,12.98124-4.25736C79.74049,68.62627,75.18506,69.27512,70.91935,70.94631Z" />
  <path
    d="M87.32532,62.881c-4.69152,1.30352-9.24167,3.07967-14.00429,4.14958C78.06224,65.87806,82.22645,62.87008,87.32532,62.881Z" />
  <path
    d="M28.956,71.31629a18.96863,18.96863,0,0,1-5.32119-5.37978c-0.49363-.79436-0.57637-1.32179.35138-1.70291,0.20964-.08611.5942-0.16023,0.62622,0.27911,0.16565,2.27419,1.7133,3.58165,3.3479,4.84A1.98724,1.98724,0,0,1,28.956,71.31629Z" />
  <path
    d="M77.73876,61.644c2.12893-2.49859,5.90853-1.10441,7.27066-4.52253,0.43687,2.51545,1.7612.00547,2.67947,0.893-0.796,1.14071-3.71242.40842-2.9588,2.337,0.19912-1.15391-.79362-0.9993-1.875-0.48652-1.29481.614-2.88013,0.53273-3.9468,1.69709C78.51084,61.99588,78.33092,61.1176,77.73876,61.644Z" />
  <path
    d="M80.78583,32.89158c-2.56729-.82934-4.95929-2.27449-7.79048-2.23655,1.44433-.17412,2.892-0.58092,4.29028.1363a2.425,2.425,0,0,0,2.34-.32841,4.36111,4.36111,0,0,1,2.17562-.62346l-2.616,1.49214c0.24465,0.84158,1.28076.80455,1.68806,1.46385Z" />
  <path
    d="M58.13964,56.70641c0.75062-2.50566,1.73709-2.98519,3.48627-2.09726,0.2429,0.12331.55683,0.1035,0.80551,0.21941,0.33479,0.15606,1.09935-.75206,1.01407.356-0.06362.82682-.78622,0.40916-1.20783,0.4483C60.9004,55.757,59.451,55.12639,58.13964,56.70641Z" />
  <path
    d="M62.8836,19.296c1.9414,1.70443,1.99924,2.30854.47591,3.65513-0.91823.81168,0.62556,1.1195,0.20706,1.89346-0.79457-1.45219-1.90107-1.14961-3.12894-.40505,0.40689-.92984.59554-1.53681,1.76357-1.62075C63.977,22.69113,64.13067,21.84088,62.8836,19.296Z" />
  <path
    d="M42.21017,13.9013a1.03117,1.03117,0,0,1,.06162-0.49113c0.38431-.44824-0.71778-1.2371.215-1.39351,0.6752-.11321.97536,0.77911,1.1349,1.265,0.27941,0.85086.05779,1.83773,0.80958,2.58994,0.19871,0.19886-.37022.55422-1.65231,0.84069a1.71693,1.71693,0,0,0-.57445-2.80739Z" />
  <path
    d="M41.54744,56.39279a1.50651,1.50651,0,0,1-1.41231.98008,0.84034,0.84034,0,0,0-.84185.68934c-0.189.91423,0.51753,0.17064,0.71857,0.37792,0.53687,0.55356.04482,0.84953-.3466,0.92242a22.48336,22.48336,0,0,0-2.59207,1.125C38.41788,57.78263,39.38534,56.87013,41.54744,56.39279Z" />
  <path d="M61.37407,81.04027l7.06435-2.5588C66.51543,80.60726,63.85563,80.60747,61.37407,81.04027Z" />
  <path
    d="M84.74884,33.6972a0.416,0.416,0,0,1,.1202-0.59006,14.1179,14.1179,0,0,1,6.32936-2.41158l-6.44889,2.99215Z" />
  <path
    d="M37.19849,45.84836c-0.64027-1.82988-1.90694-3.402-1.75758-5.44336,1.355,3.23023,1.355,3.23023,3.41521,2.73372-0.31825.68242-1.07457,0.604-1.46562,1.01461C36.91484,44.65272,38.13477,45.24934,37.19849,45.84836Z" />
  <path
    d="M35.621,37.85135c-0.57911,1.68664-3.90983,2.408-7.82408,1.965C30.41834,39.5979,33.05,39.42234,35.621,37.85135Z" />
  <path
    d="M33.235,85.40253c1.51256-1.21406,3.31372-.4003,4.92349-0.93779A7.93342,7.93342,0,0,1,33.235,85.40253Z" />
  <path d="M74.67484,29.085A10.80856,10.80856,0,0,1,80.479,27.13084Z" />
  <path
    d="M83.77007,53.064c2.17325-.61029,4.04763-1.93982,6.31921-2.037C87.99316,51.80766,86.01085,52.9225,83.77007,53.064Z" />
  <path
    d="M19.39759,46.49991c-1.02309,1.29793-2.27462,1.91207-2.8941,3.10164a0.36505,0.36505,0,0,1-.67009.04079c-0.16569-.324-0.41117-0.88164.07339-1.0328C17.13677,48.22581,17.78112,46.91681,19.39759,46.49991Z" />
  <path
    d="M31.99962,81.97815a6.9715,6.9715,0,0,1,4.33523-.998A6.68234,6.68234,0,0,1,31.99962,81.97815Z" />
  <path
    d="M30.19635,31.0102a7.36574,7.36574,0,0,1-4.07744.28123A4.46378,4.46378,0,0,1,30.19635,31.0102Z" />
  <path
    d="M28.75044,26.44677c0.23342-1.2571,2.29907-2.60819,2.97788-2.2997a0.66794,0.66794,0,0,1,.31105.37079c0.12669,0.39207-.19754.44086-0.4577,0.5399A5.65792,5.65792,0,0,0,28.75044,26.44677Z" />
  <path
    d="M87.65076,36.95346c-1.108-1.04454.41463-1.99187-.20748-2.93736a1.60708,1.60708,0,0,1,.53558.09079c0.3955,0.04944.63736,0.056,0.62664,0.6624C88.58991,35.65126,87.8281,36.02924,87.65076,36.95346Z" />
  <path
    d="M34.57964,78.6332a7.48964,7.48964,0,0,1-4.00671,1.26369A6.82179,6.82179,0,0,1,34.57964,78.6332Z" />
  <path
    d="M87.7034,47.55868a11.79419,11.79419,0,0,1-4.31889,1.811c1.41069-.685,2.54047-2.04682,4.35627-1.76529C87.74419,47.60871,87.7034,47.55868,87.7034,47.55868Z" />
  <path
    d="M84.74951,33.68771c-1.26121,1.26346-1.78523,1.453-3.96364-.79618l0.0874-.09608a5.9249,5.9249,0,0,0,3.87545.90135Z" />
  <path
    d="M43.02728,32.95453Q44.2946,31.54224,45.56189,30.13c-0.06744,1.5898-1.46915,2.06509-2.13994,3.14675Z" />
  <path
    d="M54.55117,58.78546c-1.1687.88216-2.20605,0.9429-3.37459,1.48548C51.91507,58.94074,52.43755,58.72352,54.55117,58.78546Z" />
  <path
    d="M55.81663,71.8469c0.60194,1.63506-1.04035,1.67131-1.72262,2.3862a0.4594,0.4594,0,0,1-.40706-0.11746,0.60152,0.60152,0,0,1,.14511-0.74335c0.576-.63155,1.59077-0.681,1.99853-1.52612Z" />
  <path
    d="M42.20451,13.90487a4.89155,4.89155,0,0,0-1.98115,1.20981c-0.63337.75878-1.16043-.2835-1.77014-1.1388,1.45568,0.57914,2.55357-.31561,3.75657-0.07442Z" />
  <text x="0" y="115" fill="#000000" font-size="5px" font-weight="bold"
    font-family="'Helvetica Neue', Helvetica, Arial-Unicode, Arial, Sans-serif">Created by Alex
    Muravev</text>
  <text x="0" y="120" fill="#000000" font-size="5px" font-weight="bold"
    font-family="'Helvetica Neue', Helvetica, Arial-Unicode, Arial, Sans-serif">from the Noun
    Project</text>
</svg>